<svg xmlns="http://www.w3.org/2000/svg" width="1280" height="350" viewBox="0 0 1280 350" role="img" aria-labelledby="title description">
<title id="title">CodeHorizon</title><desc id="description">Independent software by Yuvaraj Vodiboina. Browser extensions and Android apps, from interface to release.</desc>
<rect width="1280" height="350" rx="18" fill="#f6f8fa"/>
<defs><pattern id="grid" width="26" height="26" patternUnits="userSpaceOnUse"><circle cx="1" cy="1" r="1" fill="#d8e0e8"/></pattern></defs>
<rect x="750" y="26" width="500" height="280" fill="url(#grid)"/>
<g transform="translate(46 32)" fill="none" stroke="#a8492d" stroke-width="2.2" stroke-linecap="round"><path d="M0 21h30M5 15a10 10 0 0 1 20 0M15 0v4M1 5l4 4M29 5l-4 4"/></g>
<text x="90" y="53" fill="#586677" font-family="Arial,Helvetica,sans-serif" font-size="14" font-weight="600" letter-spacing="2">INDEPENDENT SOFTWARE</text>
<text x="44" y="143" fill="#17212e" font-family="Arial,Helvetica,sans-serif" font-size="72" font-weight="700" letter-spacing="-2">CodeHorizon</text>
<text x="48" y="193" fill="#a8492d" font-family="Arial,Helvetica,sans-serif" font-size="25">Browser extensions. Android apps.</text>
<text x="48" y="228" fill="#586677" font-family="Arial,Helvetica,sans-serif" font-size="21">Built and published by Yuvaraj Vodiboina.</text>
<path d="M48 269h634" stroke="#d8e0e8"/>
<text x="48" y="311" fill="#586677" font-family="Arial,Helvetica,sans-serif" font-size="16">Interface / Platform APIs / Store releases / Updates</text>
<g transform="translate(782 56)"><rect width="382" height="177" rx="14" fill="#ffffff" stroke="#d8e0e8" stroke-width="2"/><path d="M0 35h382" stroke="#d8e0e8"/><circle cx="18" cy="18" r="3" fill="#a8492d"/><circle cx="31" cy="18" r="3" fill="#207e72"/><text x="50" y="23" fill="#586677" font-family="Arial,Helvetica,sans-serif" font-size="11" letter-spacing="1">TOOLS FOR EVERYDAY WORK</text>
<rect x="24" y="59" width="104" height="92" rx="8" fill="#f6f8fa" stroke="#d8e0e8"/>
<path d="M46 78h26M46 87h19M46 96h26M76 118l6 6 13-15" fill="none" stroke="#a8492d" stroke-width="2.5" stroke-linecap="round"/>
<text x="148" y="81" fill="#17212e" font-family="Arial,Helvetica,sans-serif" font-size="18" font-weight="600">Six released products</text><text x="148" y="109" fill="#586677" font-family="Arial,Helvetica,sans-serif" font-size="15">Four browser extensions</text><text x="148" y="134" fill="#586677" font-family="Arial,Helvetica,sans-serif" font-size="15">Two Android apps</text></g>
<g transform="translate(900 249)"><rect width="306" height="53" rx="10" fill="#ffffff" stroke="#207e72"/><path d="M20 26h17m-7-7 7 7-7 7" fill="none" stroke="#207e72" stroke-width="2" stroke-linecap="round" stroke-linejoin="round"/><text x="54" y="32" fill="#17212e" font-family="Arial,Helvetica,sans-serif" font-size="17">codehorizon.in</text></g>
</svg>